<?xml version="1.0" standalone="no"?>
<!DOCTYPE svg PUBLIC "-//W3C//DTD SVG 20010904//EN"
 "http://www.w3.org/TR/2001/REC-SVG-20010904/DTD/svg10.dtd">
<svg version="1.0" xmlns="http://www.w3.org/2000/svg"
 width="300.000000pt" height="122.000000pt" viewBox="0 0 300.000000 122.000000"
 preserveAspectRatio="xMidYMid meet">
<metadata>
Created by potrace 1.10, written by Peter Selinger 2001-2011
</metadata>
<g transform="translate(0.000000,122.000000) scale(0.050000,-0.050000)"
fill="#000000" stroke="none">
<path d="M780 1860 c-343 -63 -473 -457 -351 -1062 93 -463 191 -575 191 -219
0 110 4 201 8 201 4 0 55 -22 113 -49 194 -90 535 -85 831 13 125 41 125 41
182 1 163 -116 307 -61 614 234 270 260 465 344 720 312 157 -19 161 -27 93
-152 -69 -125 -79 -199 -26 -199 22 0 52 35 80 95 24 52 62 118 84 145 l39 50
106 -37 c58 -20 140 -63 181 -96 64 -50 77 -54 88 -27 18 47 -79 139 -205 194
-130 56 -129 42 -9 185 131 155 267 266 396 324 129 57 149 120 30 98 -155
-29 -417 -234 -600 -468 -36 -46 -38 -46 -199 -21 -333 51 -556 -31 -828 -304
-250 -250 -363 -315 -479 -275 -73 26 -73 26 1 100 179 179 66 563 -150 509
-101 -25 -144 -299 -80 -506 37 -118 -619 -190 -835 -92 -181 83 -72 290 296
566 262 196 302 269 201 370 -77 77 -345 137 -492 110z m347 -125 c140 -41
113 -100 -122 -269 -69 -49 -184 -154 -257 -233 l-131 -143 11 260 c6 143 11
280 12 304 2 110 252 152 487 81z m-592 -795 l-5 -130 -28 90 c-31 104 -39
402 -13 490 22 74 55 -240 46 -450z m1284 341 c48 -89 26 -229 -48 -300 -85
-83 -100 -62 -101 141 0 176 89 272 149 159z"/>
<path d="M5349 1219 c-16 -26 29 -83 53 -68 10 6 18 29 18 50 0 41 -49 54 -71
18z"/>
<path d="M5122 1193 c-17 -21 -15 -34 9 -53 38 -32 76 -1 58 47 -16 40 -37 42
-67 6z"/>
<path d="M4893 827 c-48 -49 58 -181 191 -236 163 -68 372 -18 416 100 46 120
10 142 -82 50 -115 -115 -302 -106 -422 21 -79 83 -82 85 -103 65z"/>
</g>
</svg>
